<svg width="120" height="120" viewBox="0 0 120 120" fill="none" xmlns="http://www.w3.org/2000/svg">
  <!-- Option 6: Minimalist DT Monogram -->
  <defs>
    <linearGradient id="grad6" x1="0%" y1="0%" x2="100%" y2="100%">
      <stop offset="0%" style="stop-color:#0ea5e9;stop-opacity:1" />
      <stop offset="50%" style="stop-color:#06b6d4;stop-opacity:1" />
      <stop offset="100%" style="stop-color:#0284c7;stop-opacity:1" />
    </linearGradient>
  </defs>

  <!-- Background -->
  <rect x="20" y="20" width="80" height="80" rx="16" fill="url(#grad6)"/>

  <!-- D letter (left part) -->
  <path d="M 38 40 L 38 80 L 55 80 C 65 80 70 72 70 60 C 70 48 65 40 55 40 Z"
        fill="white"/>
  <path d="M 45 47 L 45 73 L 54 73 C 60 73 63 67 63 60 C 63 53 60 47 54 47 Z"
        fill="url(#grad6)"/>

  <!-- T letter (right part) -->
  <rect x="70" y="40" width="12" height="40" fill="white"/>
  <rect x="62" y="40" width="28" height="7" fill="white"/>

  <!-- Subtle grid pattern overlay -->
  <line x1="20" y1="60" x2="100" y2="60" stroke="white" stroke-width="0.5" opacity="0.2"/>
  <line x1="60" y1="20" x2="60" y2="100" stroke="white" stroke-width="0.5" opacity="0.2"/>
</svg>
